<mxfile host="app.diagrams.net" agent="Mozilla/5.0 (Windows NT 10.0; Win64; x64) AppleWebKit/537.36 (KHTML, like Gecko) Chrome/128.0.0.0 Safari/537.36" version="24.7.13">
  <diagram name="Page-1" id="ZnElqFSnasl6BBFRX51u">
    <mxGraphModel dx="2327" dy="851" grid="1" gridSize="10" guides="1" tooltips="1" connect="1" arrows="1" fold="1" page="1" pageScale="1" pageWidth="827" pageHeight="1169" math="0" shadow="0">
      <root>
        <mxCell id="0" />
        <mxCell id="1" parent="0" />
        <mxCell id="QtT3E06EUz6PLk_5d7Yh-31" value="" style="rounded=0;whiteSpace=wrap;html=1;fillColor=none;" vertex="1" parent="1">
          <mxGeometry x="-342.5" y="670" width="1035" height="210" as="geometry" />
        </mxCell>
        <mxCell id="QtT3E06EUz6PLk_5d7Yh-32" value="" style="rounded=0;whiteSpace=wrap;html=1;fillColor=none;" vertex="1" parent="1">
          <mxGeometry x="-380" y="190" width="1110" height="230" as="geometry" />
        </mxCell>
        <mxCell id="QtT3E06EUz6PLk_5d7Yh-27" value="" style="edgeStyle=orthogonalEdgeStyle;rounded=0;orthogonalLoop=1;jettySize=auto;html=1;" edge="1" parent="1" source="ZqoHMWBQRwOFh_WsVW18-1" target="ZqoHMWBQRwOFh_WsVW18-5">
          <mxGeometry relative="1" as="geometry" />
        </mxCell>
        <mxCell id="ZqoHMWBQRwOFh_WsVW18-1" value="&lt;font face=&quot;Times New Roman&quot; style=&quot;font-size: 16px;&quot;&gt;Admin&lt;/font&gt;" style="rounded=1;whiteSpace=wrap;html=1;fillColor=none;" parent="1" vertex="1">
          <mxGeometry x="-325" y="690" width="120" height="60" as="geometry" />
        </mxCell>
        <mxCell id="QtT3E06EUz6PLk_5d7Yh-22" value="" style="edgeStyle=orthogonalEdgeStyle;rounded=0;orthogonalLoop=1;jettySize=auto;html=1;" edge="1" parent="1" source="ZqoHMWBQRwOFh_WsVW18-2" target="QtT3E06EUz6PLk_5d7Yh-21">
          <mxGeometry relative="1" as="geometry" />
        </mxCell>
        <mxCell id="ZqoHMWBQRwOFh_WsVW18-2" value="&lt;font face=&quot;Times New Roman&quot; style=&quot;font-size: 16px;&quot;&gt;User&lt;/font&gt;" style="rounded=1;whiteSpace=wrap;html=1;fillColor=none;" parent="1" vertex="1">
          <mxGeometry x="-360" y="220" width="120" height="60" as="geometry" />
        </mxCell>
        <mxCell id="QtT3E06EUz6PLk_5d7Yh-24" value="" style="edgeStyle=orthogonalEdgeStyle;rounded=0;orthogonalLoop=1;jettySize=auto;html=1;" edge="1" parent="1" source="ZqoHMWBQRwOFh_WsVW18-3" target="ZqoHMWBQRwOFh_WsVW18-4">
          <mxGeometry relative="1" as="geometry" />
        </mxCell>
        <mxCell id="ZqoHMWBQRwOFh_WsVW18-3" value="&lt;font face=&quot;Times New Roman&quot; style=&quot;font-size: 16px;&quot;&gt;&amp;nbsp;Regisration/Login&lt;/font&gt;" style="rounded=1;whiteSpace=wrap;html=1;fillColor=none;" parent="1" vertex="1">
          <mxGeometry x="30" y="220" width="120" height="60" as="geometry" />
        </mxCell>
        <mxCell id="QtT3E06EUz6PLk_5d7Yh-25" value="" style="edgeStyle=orthogonalEdgeStyle;rounded=0;orthogonalLoop=1;jettySize=auto;html=1;" edge="1" parent="1" source="ZqoHMWBQRwOFh_WsVW18-4" target="ZqoHMWBQRwOFh_WsVW18-20">
          <mxGeometry relative="1" as="geometry" />
        </mxCell>
        <mxCell id="QtT3E06EUz6PLk_5d7Yh-33" value="" style="edgeStyle=orthogonalEdgeStyle;rounded=0;orthogonalLoop=1;jettySize=auto;html=1;" edge="1" parent="1" source="ZqoHMWBQRwOFh_WsVW18-4" target="ZqoHMWBQRwOFh_WsVW18-24">
          <mxGeometry relative="1" as="geometry" />
        </mxCell>
        <mxCell id="ZqoHMWBQRwOFh_WsVW18-4" value="&lt;font face=&quot;Times New Roman&quot;&gt;&lt;span style=&quot;font-size: 16px;&quot;&gt;Review Product&lt;/span&gt;&lt;/font&gt;" style="rounded=1;whiteSpace=wrap;html=1;fillColor=none;" parent="1" vertex="1">
          <mxGeometry x="210" y="220" width="120" height="60" as="geometry" />
        </mxCell>
        <mxCell id="QtT3E06EUz6PLk_5d7Yh-28" value="" style="edgeStyle=orthogonalEdgeStyle;rounded=0;orthogonalLoop=1;jettySize=auto;html=1;" edge="1" parent="1" source="ZqoHMWBQRwOFh_WsVW18-5" target="ZqoHMWBQRwOFh_WsVW18-6">
          <mxGeometry relative="1" as="geometry" />
        </mxCell>
        <mxCell id="QtT3E06EUz6PLk_5d7Yh-44" value="" style="edgeStyle=orthogonalEdgeStyle;rounded=0;orthogonalLoop=1;jettySize=auto;html=1;" edge="1" parent="1" source="ZqoHMWBQRwOFh_WsVW18-5" target="QtT3E06EUz6PLk_5d7Yh-6">
          <mxGeometry relative="1" as="geometry" />
        </mxCell>
        <mxCell id="ZqoHMWBQRwOFh_WsVW18-5" value="&lt;font face=&quot;Times New Roman&quot; style=&quot;font-size: 16px;&quot;&gt;Product Management&lt;/font&gt;" style="rounded=1;whiteSpace=wrap;html=1;fillColor=none;" parent="1" vertex="1">
          <mxGeometry x="55" y="690" width="120" height="60" as="geometry" />
        </mxCell>
        <mxCell id="QtT3E06EUz6PLk_5d7Yh-47" value="" style="edgeStyle=orthogonalEdgeStyle;rounded=0;orthogonalLoop=1;jettySize=auto;html=1;" edge="1" parent="1" source="ZqoHMWBQRwOFh_WsVW18-6" target="QtT3E06EUz6PLk_5d7Yh-13">
          <mxGeometry relative="1" as="geometry" />
        </mxCell>
        <mxCell id="ZqoHMWBQRwOFh_WsVW18-6" value="&lt;font face=&quot;Times New Roman&quot; style=&quot;font-size: 16px;&quot;&gt;Order Management&lt;/font&gt;" style="rounded=1;whiteSpace=wrap;html=1;fillColor=none;" parent="1" vertex="1">
          <mxGeometry x="435" y="690" width="120" height="60" as="geometry" />
        </mxCell>
        <mxCell id="QtT3E06EUz6PLk_5d7Yh-26" value="" style="edgeStyle=orthogonalEdgeStyle;rounded=0;orthogonalLoop=1;jettySize=auto;html=1;" edge="1" parent="1" source="ZqoHMWBQRwOFh_WsVW18-20" target="ZqoHMWBQRwOFh_WsVW18-27">
          <mxGeometry relative="1" as="geometry" />
        </mxCell>
        <mxCell id="ZqoHMWBQRwOFh_WsVW18-20" value="&lt;font face=&quot;Times New Roman&quot;&gt;&lt;span style=&quot;font-size: 16px;&quot;&gt;Place Order&lt;/span&gt;&lt;/font&gt;" style="rounded=1;whiteSpace=wrap;html=1;fillColor=none;" parent="1" vertex="1">
          <mxGeometry x="390" y="220" width="120" height="60" as="geometry" />
        </mxCell>
        <mxCell id="ZqoHMWBQRwOFh_WsVW18-24" value="&lt;font style=&quot;font-size: 16px;&quot; face=&quot;Times New Roman&quot;&gt;Leave Review&lt;/font&gt;" style="ellipse;whiteSpace=wrap;html=1;fillColor=none;" parent="1" vertex="1">
          <mxGeometry x="210" y="330" width="120" height="70" as="geometry" />
        </mxCell>
        <mxCell id="ZqoHMWBQRwOFh_WsVW18-27" value="&lt;font face=&quot;Times New Roman&quot; style=&quot;font-size: 16px;&quot;&gt;Make payment&lt;/font&gt;" style="rounded=1;whiteSpace=wrap;html=1;fillColor=none;" parent="1" vertex="1">
          <mxGeometry x="560" y="220" width="120" height="60" as="geometry" />
        </mxCell>
        <mxCell id="ZqoHMWBQRwOFh_WsVW18-52" style="edgeStyle=orthogonalEdgeStyle;rounded=0;orthogonalLoop=1;jettySize=auto;html=1;exitX=0.5;exitY=1;exitDx=0;exitDy=0;" parent="1" edge="1">
          <mxGeometry relative="1" as="geometry">
            <mxPoint x="354" y="445" as="sourcePoint" />
            <mxPoint x="354" y="445" as="targetPoint" />
          </mxGeometry>
        </mxCell>
        <mxCell id="QtT3E06EUz6PLk_5d7Yh-5" value="Add" style="ellipse;whiteSpace=wrap;html=1;fillColor=none;" vertex="1" parent="1">
          <mxGeometry x="-20" y="780" width="90" height="60" as="geometry" />
        </mxCell>
        <mxCell id="QtT3E06EUz6PLk_5d7Yh-6" value="Edit" style="ellipse;whiteSpace=wrap;html=1;fillColor=none;" vertex="1" parent="1">
          <mxGeometry x="70" y="790" width="90" height="60" as="geometry" />
        </mxCell>
        <mxCell id="QtT3E06EUz6PLk_5d7Yh-7" value="Delete" style="ellipse;whiteSpace=wrap;html=1;fillColor=none;" vertex="1" parent="1">
          <mxGeometry x="167.5" y="790" width="100" height="60" as="geometry" />
        </mxCell>
        <mxCell id="QtT3E06EUz6PLk_5d7Yh-12" value="Payment Status" style="ellipse;whiteSpace=wrap;html=1;fillColor=none;" vertex="1" parent="1">
          <mxGeometry x="359" y="790" width="90" height="60" as="geometry" />
        </mxCell>
        <mxCell id="QtT3E06EUz6PLk_5d7Yh-13" value="Delivery&lt;br&gt;Status" style="ellipse;whiteSpace=wrap;html=1;fillColor=none;" vertex="1" parent="1">
          <mxGeometry x="465" y="797.5" width="90" height="52.5" as="geometry" />
        </mxCell>
        <mxCell id="QtT3E06EUz6PLk_5d7Yh-14" value="Order Status" style="ellipse;whiteSpace=wrap;html=1;fillColor=none;" vertex="1" parent="1">
          <mxGeometry x="575" y="801.25" width="100" height="48.75" as="geometry" />
        </mxCell>
        <mxCell id="QtT3E06EUz6PLk_5d7Yh-16" value="Payment Portal (Khalti)" style="ellipse;whiteSpace=wrap;html=1;fillColor=none;" vertex="1" parent="1">
          <mxGeometry x="520" y="320" width="80" height="50" as="geometry" />
        </mxCell>
        <mxCell id="QtT3E06EUz6PLk_5d7Yh-19" value="Cash on Delivery" style="ellipse;whiteSpace=wrap;html=1;fillColor=none;" vertex="1" parent="1">
          <mxGeometry x="630" y="330" width="90" height="50" as="geometry" />
        </mxCell>
        <mxCell id="QtT3E06EUz6PLk_5d7Yh-23" value="" style="edgeStyle=orthogonalEdgeStyle;rounded=0;orthogonalLoop=1;jettySize=auto;html=1;" edge="1" parent="1" source="QtT3E06EUz6PLk_5d7Yh-21" target="ZqoHMWBQRwOFh_WsVW18-3">
          <mxGeometry relative="1" as="geometry" />
        </mxCell>
        <mxCell id="QtT3E06EUz6PLk_5d7Yh-21" value="&lt;font face=&quot;Times New Roman&quot; style=&quot;font-size: 16px;&quot;&gt;Visits KrishiBazar&lt;/font&gt;" style="rounded=1;whiteSpace=wrap;html=1;fillColor=none;" vertex="1" parent="1">
          <mxGeometry x="-150" y="220" width="120" height="60" as="geometry" />
        </mxCell>
        <mxCell id="QtT3E06EUz6PLk_5d7Yh-37" value="" style="edgeStyle=orthogonalEdgeStyle;rounded=0;orthogonalLoop=1;jettySize=auto;html=1;" edge="1" parent="1" source="QtT3E06EUz6PLk_5d7Yh-30" target="QtT3E06EUz6PLk_5d7Yh-32">
          <mxGeometry relative="1" as="geometry" />
        </mxCell>
        <mxCell id="QtT3E06EUz6PLk_5d7Yh-39" value="" style="edgeStyle=orthogonalEdgeStyle;rounded=0;orthogonalLoop=1;jettySize=auto;html=1;entryX=0.5;entryY=0;entryDx=0;entryDy=0;" edge="1" parent="1" source="QtT3E06EUz6PLk_5d7Yh-30" target="QtT3E06EUz6PLk_5d7Yh-31">
          <mxGeometry relative="1" as="geometry" />
        </mxCell>
        <mxCell id="QtT3E06EUz6PLk_5d7Yh-30" value="&lt;font style=&quot;font-size: 16px;&quot; face=&quot;Times New Roman&quot;&gt;KrishiBazar&lt;/font&gt;" style="ellipse;whiteSpace=wrap;html=1;fillColor=none;" vertex="1" parent="1">
          <mxGeometry x="82.5" y="515" width="185" height="95" as="geometry" />
        </mxCell>
        <mxCell id="QtT3E06EUz6PLk_5d7Yh-34" value="" style="endArrow=classic;html=1;rounded=0;entryX=0.5;entryY=0;entryDx=0;entryDy=0;" edge="1" parent="1" target="QtT3E06EUz6PLk_5d7Yh-16">
          <mxGeometry width="50" height="50" relative="1" as="geometry">
            <mxPoint x="570" y="280" as="sourcePoint" />
            <mxPoint x="620" y="230" as="targetPoint" />
          </mxGeometry>
        </mxCell>
        <mxCell id="QtT3E06EUz6PLk_5d7Yh-36" value="" style="endArrow=classic;html=1;rounded=0;entryX=0.5;entryY=0;entryDx=0;entryDy=0;" edge="1" parent="1" target="QtT3E06EUz6PLk_5d7Yh-19">
          <mxGeometry width="50" height="50" relative="1" as="geometry">
            <mxPoint x="660" y="280" as="sourcePoint" />
            <mxPoint x="650" y="320" as="targetPoint" />
          </mxGeometry>
        </mxCell>
        <mxCell id="QtT3E06EUz6PLk_5d7Yh-43" value="" style="endArrow=classic;html=1;rounded=0;entryX=0.5;entryY=0;entryDx=0;entryDy=0;" edge="1" parent="1" target="QtT3E06EUz6PLk_5d7Yh-5">
          <mxGeometry width="50" height="50" relative="1" as="geometry">
            <mxPoint x="65" y="750" as="sourcePoint" />
            <mxPoint x="115" y="700" as="targetPoint" />
          </mxGeometry>
        </mxCell>
        <mxCell id="QtT3E06EUz6PLk_5d7Yh-45" value="" style="endArrow=classic;html=1;rounded=0;exitX=0.022;exitY=0.928;exitDx=0;exitDy=0;entryX=0.5;entryY=0;entryDx=0;entryDy=0;exitPerimeter=0;" edge="1" parent="1" source="ZqoHMWBQRwOFh_WsVW18-6" target="QtT3E06EUz6PLk_5d7Yh-12">
          <mxGeometry width="50" height="50" relative="1" as="geometry">
            <mxPoint x="370" y="744.3500000000001" as="sourcePoint" />
            <mxPoint x="398.1376005976083" y="790.0038963683705" as="targetPoint" />
          </mxGeometry>
        </mxCell>
        <mxCell id="QtT3E06EUz6PLk_5d7Yh-53" value="" style="endArrow=classic;html=1;rounded=0;entryX=0.5;entryY=0;entryDx=0;entryDy=0;" edge="1" parent="1" target="QtT3E06EUz6PLk_5d7Yh-14">
          <mxGeometry width="50" height="50" relative="1" as="geometry">
            <mxPoint x="550" y="750" as="sourcePoint" />
            <mxPoint x="510" y="780" as="targetPoint" />
          </mxGeometry>
        </mxCell>
      </root>
    </mxGraphModel>
  </diagram>
</mxfile>
